<?xml version="1.0" standalone="no"?>
<!DOCTYPE svg PUBLIC "-//W3C//DTD SVG 20010904//EN"
 "http://www.w3.org/TR/2001/REC-SVG-20010904/DTD/svg10.dtd">
<svg version="1.0" xmlns="http://www.w3.org/2000/svg"
 width="81.000000pt" height="54.000000pt" viewBox="0 0 81.000000 54.000000"
 preserveAspectRatio="xMidYMid meet">

<g transform="translate(0.000000,54.000000) scale(0.100000,-0.100000)"
fill="#000000" stroke="none">
<path d="M489 513 c-6 -15 -23 -63 -37 -106 -25 -74 -30 -80 -70 -99 -55 -26
-99 -80 -110 -135 -10 -46 -2 -104 18 -128 10 -12 9 -15 -4 -15 -32 0 -83 28
-103 56 -12 16 -24 26 -28 22 -12 -12 33 -65 69 -82 26 -12 65 -16 164 -16
144 0 163 8 119 46 -21 18 -25 27 -18 46 7 21 11 18 46 -35 31 -47 43 -57 66
-57 16 0 29 4 29 10 0 5 -16 34 -35 64 -34 54 -35 57 -35 161 l0 105 25 0 c15
0 38 12 52 26 26 26 26 27 8 40 -10 8 -24 14 -30 14 -15 0 -55 55 -55 75 0 18
-12 19 -28 3 -9 -9 -12 -8 -12 4 0 30 -20 30 -31 1z"/>
</g>
</svg>
